<svg version="1.1" id="Layer_1" xmlns="http://www.w3.org/2000/svg" xmlns:xlink="http://www.w3.org/1999/xlink" x="0px" y="0px"
	 width="100%" viewBox="0 0 199 109" enable-background="new 0 0 199 109" xml:space="preserve">
<path fill="#010101" opacity="1.000000" stroke="none" 
	d="
M175.000000,1.000000 
	C183.316879,1.000000 191.633759,1.000000 199.975311,1.000000 
	C199.975311,37.245132 199.975311,73.490280 199.975311,110.000000 
	C170.979645,110.000000 141.958481,110.000000 112.589363,109.682686 
	C115.802902,103.838249 120.217819,98.672417 122.743301,92.706703 
	C127.586044,81.267181 131.356628,69.373734 135.570969,57.668228 
	C137.695618,51.766914 142.121979,51.177044 146.973099,54.435627 
	C149.813629,56.343647 155.752701,57.303268 157.989197,55.620724 
	C161.707367,52.823494 164.483017,52.699299 168.337692,53.979198 
	C172.210190,55.265026 176.076508,54.928471 178.742966,51.463509 
	C179.662140,50.269032 179.510208,48.250290 179.847565,46.608078 
	C178.334045,46.517124 176.803528,46.241405 175.310928,46.378479 
	C173.067871,46.584480 170.821518,47.522465 168.628738,47.374756 
	C159.422180,46.754566 150.235016,45.846333 141.022064,45.025734 
	C141.003357,45.007896 140.967163,44.970978 141.062744,44.610649 
	C141.789688,42.370148 142.367279,40.469852 143.061661,38.613247 
	C146.206467,30.204790 149.213440,22.820696 160.430038,21.102901 
	C171.311203,19.436481 176.343399,10.562048 175.000000,1.000000 
M160.183243,30.699131 
	C157.691269,32.446938 158.032562,34.403278 160.385025,35.605995 
	C161.311661,36.079742 163.050186,34.965473 164.418991,34.574333 
	C163.217697,33.228687 162.016403,31.883043 160.183243,30.699131 
z"/>
<path fill="#000000" opacity="1.000000" stroke="none" 
	d="
M1.000000,56.000000 
	C1.000000,37.704220 1.000000,19.408438 1.000000,1.000000 
	C53.687511,1.000000 106.375099,1.000000 159.361908,1.285001 
	C156.616577,4.597660 153.163971,7.322704 150.635132,10.732794 
	C147.747314,14.626932 144.406723,16.339245 139.637024,16.048906 
	C135.663437,15.807030 131.589752,15.570181 127.691963,16.176626 
	C123.673874,16.801788 119.632904,18.072004 115.976372,19.836096 
	C114.529236,20.534271 114.091545,23.324787 113.194237,25.162628 
	C115.448982,25.385429 118.519722,26.657902 119.817192,25.649277 
	C125.425636,21.289434 131.728668,22.031660 137.976151,22.195034 
	C141.370605,22.283800 142.788910,23.863327 141.085556,27.455742 
	C139.025085,31.801325 137.223129,36.279655 135.508820,40.776604 
	C133.408310,46.286655 130.322449,51.016830 124.501389,52.822071 
	C121.678581,53.697491 118.439240,53.204609 115.391685,53.385323 
	C107.161720,53.873348 107.162415,53.884869 107.718399,46.085976 
	C108.262810,38.449535 102.894745,34.729351 95.857414,37.521862 
	C93.576309,38.427036 90.835846,38.198429 88.300232,38.431030 
	C86.185242,38.625046 84.062546,38.735149 81.532852,38.897182 
	C70.642479,35.515289 67.599838,45.041351 62.076279,50.800488 
	C60.880013,46.861423 60.076492,43.673012 58.943897,40.606129 
	C56.965126,35.247936 57.026970,35.017006 62.766720,33.816406 
	C70.243759,32.252415 76.806770,24.663013 76.677986,17.089939 
	C76.643517,15.063322 75.516701,12.147224 73.981148,11.311114 
	C72.463783,10.484899 69.236496,11.075868 67.742867,12.272662 
	C64.164558,15.139832 61.234119,18.801371 57.897846,21.991320 
	C56.434040,23.390932 54.145683,25.722437 53.067513,25.330667 
	C51.230885,24.663301 49.728115,22.349178 48.713017,20.399912 
	C48.014023,19.057663 48.224468,17.156710 48.296822,15.517305 
	C48.412846,12.888354 49.385334,9.436848 45.652306,9.130527 
	C41.718155,8.807703 41.966671,12.659407 41.574970,15.326613 
	C41.388680,16.595135 41.573433,18.050728 42.027744,19.256714 
	C43.599926,23.430166 45.364361,27.531195 47.048599,31.642651 
	C44.414749,31.642651 41.422485,31.335852 38.513599,31.698265 
	C28.450806,32.951973 19.917536,37.709442 12.416548,44.229076 
	C8.306034,47.801811 4.786191,52.054127 1.000000,56.000000 
M94.553665,23.934160 
	C92.826630,23.907242 91.099586,23.880323 89.372551,23.853403 
	C89.397255,24.907734 89.005386,26.477741 89.535713,26.906141 
	C90.554855,27.729414 92.404251,28.581566 93.334084,28.158266 
	C94.243935,27.744062 94.437477,25.756382 94.553665,23.934160 
z"/>
<path fill="#000000" opacity="1.000000" stroke="none" 
	d="
M97.000000,110.000000 
	C65.105606,110.000000 33.211216,110.000000 1.000000,110.000000 
	C1.000000,97.980965 1.000000,85.959137 1.356829,73.566078 
	C9.590842,77.527206 17.239733,76.430130 24.382376,71.683067 
	C28.652647,68.845001 32.818584,65.649918 36.369694,61.975742 
	C41.976120,56.175026 47.026268,49.836666 52.972832,42.961708 
	C53.719662,45.463032 54.830185,47.435211 54.778923,49.376720 
	C54.674187,53.343868 53.705433,57.286686 53.575390,61.255344 
	C53.512257,63.181805 54.537666,65.143929 55.070271,67.089912 
	C56.937748,66.312828 59.611958,66.062912 60.526608,64.663200 
	C63.706104,59.797558 67.679489,57.184189 73.923622,58.294918 
	C77.982086,62.692059 77.982086,62.692059 84.378761,57.936069 
	C94.194794,58.010605 103.761688,57.181686 112.573029,61.954842 
	C112.557945,62.060677 112.627121,62.478989 112.450020,62.676552 
	C110.898529,64.407387 109.179283,66.000801 107.740608,67.817749 
	C97.883286,80.266891 89.112556,93.022255 97.000000,110.000000 
z"/>
<path fill="#141011" opacity="1.000000" stroke="none" 
	d="
M97.466118,110.000000 
	C89.112556,93.022255 97.883286,80.266891 107.740608,67.817749 
	C109.179283,66.000801 110.898529,64.407387 112.450020,62.676552 
	C112.627121,62.478989 112.557945,62.060677 112.573029,61.954842 
	C103.761688,57.181686 94.194794,58.010605 84.448029,57.593666 
	C83.410156,51.132282 82.676712,45.007351 81.943268,38.882416 
	C84.062546,38.735149 86.185242,38.625046 88.300232,38.431030 
	C90.835846,38.198429 93.576309,38.427036 95.857414,37.521862 
	C102.894745,34.729351 108.262810,38.449535 107.718399,46.085976 
	C107.162415,53.884869 107.161720,53.873348 115.391685,53.385323 
	C118.439240,53.204609 121.678581,53.697491 124.501389,52.822071 
	C130.322449,51.016830 133.408310,46.286655 135.508820,40.776604 
	C137.223129,36.279655 139.025085,31.801325 141.085556,27.455742 
	C142.788910,23.863327 141.370605,22.283800 137.976151,22.195034 
	C131.728668,22.031660 125.425636,21.289434 119.817192,25.649277 
	C118.519722,26.657902 115.448982,25.385429 113.194237,25.162628 
	C114.091545,23.324787 114.529236,20.534271 115.976372,19.836096 
	C119.632904,18.072004 123.673874,16.801788 127.691963,16.176626 
	C131.589752,15.570181 135.663437,15.807030 139.637024,16.048906 
	C144.406723,16.339245 147.747314,14.626932 150.635132,10.732794 
	C153.163971,7.322704 156.616577,4.597660 159.830566,1.285001 
	C164.689255,1.000000 169.378510,1.000000 174.533875,1.000000 
	C176.343399,10.562048 171.311203,19.436481 160.430038,21.102901 
	C149.213440,22.820696 146.206467,30.204790 143.061661,38.613247 
	C142.367279,40.469852 141.789688,42.370148 141.049896,44.629456 
	C140.941452,45.008595 141.040756,45.043568 141.040756,45.043571 
	C150.235016,45.846333 159.422180,46.754566 168.628738,47.374756 
	C170.821518,47.522465 173.067871,46.584480 175.310928,46.378479 
	C176.803528,46.241405 178.334045,46.517124 179.847565,46.608078 
	C179.510208,48.250290 179.662140,50.269032 178.742966,51.463509 
	C176.076508,54.928471 172.210190,55.265026 168.337692,53.979198 
	C164.483017,52.699299 161.707367,52.823494 157.989197,55.620724 
	C155.752701,57.303268 149.813629,56.343647 146.973099,54.435627 
	C142.121979,51.177044 137.695618,51.766914 135.570969,57.668228 
	C131.356628,69.373734 127.586044,81.267181 122.743301,92.706703 
	C120.217819,98.672417 115.802902,103.838249 112.120705,109.682686 
	C107.310745,110.000000 102.621490,110.000000 97.466118,110.000000 
M119.439003,64.940620 
	C113.968918,71.975540 108.050453,78.720634 103.231270,86.176277 
	C101.052368,89.547203 100.458572,94.298302 100.230278,98.482430 
	C99.958916,103.455872 104.339722,105.613586 108.344040,102.527443 
	C111.007347,100.474831 113.646126,97.674873 114.896805,94.633987 
	C119.309563,83.904900 123.130081,72.931717 127.119408,62.030693 
	C127.292290,61.558281 126.912949,60.883781 126.581810,59.309937 
	C123.998978,61.322590 121.978325,62.897167 119.439003,64.940620 
M160.268982,9.631845 
	C158.849030,11.204022 157.429092,12.776200 155.489883,14.923303 
	C161.849075,15.124289 166.004440,12.329272 168.057556,6.480228 
	C165.176346,7.587334 163.015762,8.417535 160.268982,9.631845 
M89.951782,47.690975 
	C89.667053,49.671169 89.382332,51.651363 89.024368,54.140915 
	C94.124580,51.472244 94.644096,48.529514 91.214256,44.353802 
	C90.777672,45.355270 90.411339,46.195606 89.951782,47.690975 
z"/>
<path fill="#141011" opacity="1.000000" stroke="none" 
	d="
M81.532852,38.897182 
	C82.676712,45.007351 83.410156,51.132282 84.074326,57.599621 
	C77.982086,62.692059 77.982086,62.692059 73.923622,58.294918 
	C67.679489,57.184189 63.706104,59.797558 60.526608,64.663200 
	C59.611958,66.062912 56.937748,66.312828 55.070271,67.089912 
	C54.537666,65.143929 53.512257,63.181805 53.575390,61.255344 
	C53.705433,57.286686 54.674187,53.343868 54.778923,49.376720 
	C54.830185,47.435211 53.719662,45.463032 52.972832,42.961708 
	C47.026268,49.836666 41.976120,56.175026 36.369694,61.975742 
	C32.818584,65.649918 28.652647,68.845001 24.382376,71.683067 
	C17.239733,76.430130 9.590842,77.527206 1.356829,73.097420 
	C1.000000,67.645073 1.000000,62.290142 1.000000,56.467606 
	C4.786191,52.054127 8.306034,47.801811 12.416548,44.229076 
	C19.917536,37.709442 28.450806,32.951973 38.513599,31.698265 
	C41.422485,31.335852 44.414749,31.642651 47.048599,31.642651 
	C45.364361,27.531195 43.599926,23.430166 42.027744,19.256714 
	C41.573433,18.050728 41.388680,16.595135 41.574970,15.326613 
	C41.966671,12.659407 41.718155,8.807703 45.652306,9.130527 
	C49.385334,9.436848 48.412846,12.888354 48.296822,15.517305 
	C48.224468,17.156710 48.014023,19.057663 48.713017,20.399912 
	C49.728115,22.349178 51.230885,24.663301 53.067513,25.330667 
	C54.145683,25.722437 56.434040,23.390932 57.897846,21.991320 
	C61.234119,18.801371 64.164558,15.139832 67.742867,12.272662 
	C69.236496,11.075868 72.463783,10.484899 73.981148,11.311114 
	C75.516701,12.147224 76.643517,15.063322 76.677986,17.089939 
	C76.806770,24.663013 70.243759,32.252415 62.766720,33.816406 
	C57.026970,35.017006 56.965126,35.247936 58.943897,40.606129 
	C60.076492,43.673012 60.880013,46.861423 62.076279,50.800488 
	C67.599838,45.041351 70.642479,35.515289 81.532852,38.897182 
M15.197301,68.738243 
	C29.635176,63.285736 38.021324,51.771492 45.559231,39.094791 
	C42.312721,38.282909 39.162476,37.417065 36.856853,38.445236 
	C29.938057,41.530628 22.797903,44.626476 16.822155,49.144192 
	C12.738272,52.231644 9.509927,57.337662 7.623296,62.208992 
	C5.501065,67.688660 8.439548,70.038620 15.197301,68.738243 
z"/>
<path fill="#141112" opacity="1.000000" stroke="none" 
	d="
M160.499176,30.618263 
	C162.016403,31.883043 163.217697,33.228687 164.418991,34.574333 
	C163.050186,34.965473 161.311661,36.079742 160.385025,35.605995 
	C158.032562,34.403278 157.691269,32.446938 160.499176,30.618263 
z"/>
<path fill="#131010" opacity="1.000000" stroke="none" 
	d="
M94.749550,24.196762 
	C94.437477,25.756382 94.243935,27.744062 93.334084,28.158266 
	C92.404251,28.581566 90.554855,27.729414 89.535713,26.906141 
	C89.005386,26.477741 89.397255,24.907734 89.372551,23.853405 
	C91.099586,23.880323 92.826630,23.907242 94.749550,24.196762 
z"/>
<path fill="#000000" opacity="1.000000" stroke="none" 
	d="
M119.698334,64.706184 
	C121.978325,62.897167 123.998978,61.322590 126.581810,59.309937 
	C126.912949,60.883781 127.292290,61.558281 127.119408,62.030693 
	C123.130081,72.931717 119.309563,83.904900 114.896805,94.633987 
	C113.646126,97.674873 111.007347,100.474831 108.344040,102.527443 
	C104.339722,105.613586 99.958916,103.455872 100.230278,98.482430 
	C100.458572,94.298302 101.052368,89.547203 103.231270,86.176277 
	C108.050453,78.720634 113.968918,71.975540 119.698334,64.706184 
z"/>
<path fill="#000000" opacity="1.000000" stroke="none" 
	d="
M160.562073,9.439791 
	C163.015762,8.417535 165.176346,7.587334 168.057556,6.480228 
	C166.004440,12.329272 161.849075,15.124289 155.489883,14.923303 
	C157.429092,12.776200 158.849030,11.204022 160.562073,9.439791 
z"/>
<path fill="#141011" opacity="1.000000" stroke="none" 
	d="
M89.998390,47.363457 
	C90.411339,46.195606 90.777672,45.355270 91.214256,44.353802 
	C94.644096,48.529514 94.124580,51.472244 89.024368,54.140915 
	C89.382332,51.651363 89.667053,49.671169 89.998390,47.363457 
z"/>
<path fill="#010101" opacity="1.000000" stroke="none" 
	d="
M141.022064,45.025734 
	C141.040756,45.043568 140.941452,45.008595 140.954315,44.989784 
	C140.967163,44.970978 141.003357,45.007896 141.022064,45.025734 
z"/>
<path fill="#000000" opacity="1.000000" stroke="none" 
	d="
M14.829285,68.847816 
	C8.439548,70.038620 5.501065,67.688660 7.623296,62.208992 
	C9.509927,57.337662 12.738272,52.231644 16.822155,49.144192 
	C22.797903,44.626476 29.938057,41.530628 36.856853,38.445236 
	C39.162476,37.417065 42.312721,38.282909 45.559231,39.094791 
	C38.021324,51.771492 29.635176,63.285736 14.829285,68.847816 
z"/>
</svg>